<svg width="34" height="31" viewBox="0 0 34 31" fill="none" xmlns="http://www.w3.org/2000/svg">
<path d="M0.143834 7.86809C0.143834 19.7019 7.26925 27.4865 18.1771 27.4865C22.3048 27.4865 25.7734 26.0426 28.1119 23.6256C28.9594 25.3677 29.3675 27.361 30.0894 29.6367C30.3405 30.4372 30.9056 30.7824 31.549 30.7824C32.8203 30.7824 33.8562 29.6053 33.8562 28.1928C33.8562 26.278 31.9414 23.092 30.1836 20.5965C30.8899 19.0898 31.2665 17.3791 31.2665 15.5271C31.2665 8.79409 25.7891 3.92871 18.2399 3.92871C15.6503 3.92871 13.0606 4.65067 10.2199 4.65067C7.83426 4.65067 5.82533 3.92871 4.146 2.02965C3.09445 0.805455 1.10121 0.82115 0.630371 2.7673C0.238002 4.30539 0.143834 7.00488 0.143834 7.86809ZM9.35665 11.6819C10.314 14.6168 13.296 15.9666 17.1099 16.8769C22.195 18.0697 24.5335 19.0585 26.4796 21.2243C24.6747 23.3902 21.7555 24.6772 18.1771 24.6772C8.85442 24.6772 2.95319 18.1482 2.95319 7.86809C2.95319 6.98919 2.96889 6.00042 3.07875 5.27846C3.11014 5.04304 3.2357 5.01165 3.40834 5.1529C5.15046 6.62821 7.78718 7.46003 10.2199 7.46003C11.9306 7.46003 13.4844 7.2403 14.8655 7.05197C16.1054 6.87933 17.204 6.73807 18.2399 6.73807C24.2353 6.73807 28.4572 10.395 28.4572 15.5271C28.4572 16.4688 28.3159 17.3791 28.0805 18.2109C25.8675 16.3747 22.6187 15.2446 18.0045 14.5227C14.8341 14.0047 12.2759 13.2357 10.5808 11.0541C10.0001 10.3165 9.08984 10.8187 9.35665 11.6819Z" fill="black"/>
</svg>
